                <svg id="tomato" version="1.1" xmlns="http://www.w3.org/2000/svg"
                xmlns:xlink="http://www.w3.org/1999/xlink" xml:space="preserve"
                style=
                "fill-rule:evenodd;clip-rule:evenodd;stroke-linejoin:round;stroke-miterlimit:1.41421;">
                <g>
                    <g id="Path-12">
                        <g>
                            <path id="tomato-body-green" d=
                            "M68.144,15.65c-2.07,0.46 -18.818,0.002 -31.643,14.915c-1.097,1.275 -3.448,3.834 -3.448,3.834c-13.631,9.847 -28.061,40.911 -6.025,73.919c31.703,47.487 92.99,19.021 95.983,17.031c4.873,-3.242 29.941,-17.023 26.7,-56.437c-3.241,-39.413 -34.127,-47.07 -34.127,-47.07c0,0 -9.331,-4.604 -18.734,-3.534c-9.402,1.07 -10.264,-1.186 -10.264,-1.186c0,0 -10.523,-2.726 -18.442,-1.472Z"
                            style="fill:url(#_Linear2);"></path>
                            <path id="tomato-body-red" d=
                            "M68.144,15.65c-2.07,0.46 -18.818,0.002 -31.643,14.915c-1.097,1.275 -3.448,3.834 -3.448,3.834c-13.631,9.847 -28.061,40.911 -6.025,73.919c31.703,47.487 92.99,19.021 95.983,17.031c4.873,-3.242 29.941,-17.023 26.7,-56.437c-3.241,-39.413 -34.127,-47.07 -34.127,-47.07c0,0 -9.331,-4.604 -18.734,-3.534c-9.402,1.07 -10.264,-1.186 -10.264,-1.186c0,0 -10.523,-2.726 -18.442,-1.472Z"
                            style="fill:url(#_Linear1);"></path>
                        </g>
                    </g>
                    <g id="Stalk">
                        <g id="Glare">
                            <path id="Path-6" d=
                            "M66.554,54.991c-15.176,-3.858 -28.729,-15.366 -33.064,-12.229c-19.495,14.108 56.327,29.321 66.212,15.917c2.232,-3.027 -18.381,0.066 -33.148,-3.688Z"
                            style="fill:url(#_Radial2);"></path>
                            <path id="Path-11" d=
                            "M82.046,24.784c2.308,7.673 23.05,14.38 23.05,14.38c0,0 13.797,0.678 11.096,-5.247c-2.702,-5.926 -15.574,-11.344 -23.065,-11.344c-7.491,0 -8.773,0 -11.081,2.211Z"
                            style="fill:url(#_Radial3);"></path>
                        </g>
                        <g id="Shadows">
                            <path id="Path-7" d=
                            "M78.795,44.197c-6.081,0.925 -9.991,1.535 -14.715,-0.285c-4.725,-1.819 -19.378,1.378 -24.869,12.352c-5.491,10.974 4.765,-15.558 15.975,-17.759c11.21,-2.202 17.151,-1.252 17.151,-1.252l37.614,2.867c0,0 15.219,2.484 19.882,14.507c4.663,12.022 -6.529,-12.337 -26.43,-11.355c-12.995,0.64 -4.891,12.409 -7.722,26.095c-3.736,-12.638 -10.805,-26.095 -16.886,-25.17Z"
                            style="fill:url(#_Radial4);"></path>
                            <path id="Path-8" d=
                            "M110.123,35.813c1.43,-3.172 5.198,-7.471 14.793,-6.832c-4.517,-2.096 -9.405,-4.58 -14.228,-2.081c-4.824,2.499 -13.181,9.268 -13.181,9.268c0,0 3.641,1.998 12.616,-0.355Z"
                            style="fill:url(#_Radial5);"></path>
                            <path id="Path-9" d=
                            "M66.885,32.984c0,0 -5.306,-4.543 -14.806,-5.759c4.073,-2.925 7.759,-1.774 12.28,-0.329c4.52,1.446 6.72,7.25 6.72,7.25l-4.194,-1.162Z"
                            style="fill:url(#_Radial6);"></path>
                            <path id="Path-10" d=
                            "M72.34,29.983c0,0 0.796,-10.081 -14.312,-9.272c7.008,-1.107 12,-1.317 15.303,0c3.303,1.318 2.61,11.603 2.61,11.603l-3.601,-2.331Z"
                            style="fill:url(#_Radial7);"></path>
                        </g>
                        <g id="Greenery">
                            <path id="Path-4" d=
                            "M67.995,33.357c-3.765,-3.533 -8.247,-7.193 -12.507,-10.883c-4.25,-3.682 -8.28,-7.398 -9.804,-8.448c1.058,0.175 5.884,3.718 11.026,7.687c6.761,5.219 14.067,11.174 14.067,11.174c0,0 -1.247,1.298 -2.782,0.47Z"
                            style="fill:#7d8531;"></path>
                            <path id="Path-5" d=
                            "M154.127,43.617c-16.674,-4.254 -32.778,-4.578 -43.571,-3.675c-5.375,0.449 -7.724,1.489 -11.595,1.935c-3.871,0.445 -11.73,0.82 -12.403,1.003c-1.905,0.519 -11.447,-0.301 -17.251,-3.203c-5.804,-2.902 -9.101,-6.359 -20.89,-6.968c-11.789,-0.608 -26.659,5.187 -26.659,5.187c0,0 16.284,-9.805 28.216,-7.114c10.79,1.369 37.937,6.462 37.937,6.462c0,0 48.982,-2.27 66.216,6.373Z"
                            style="fill:#7d8531;"></path>
                            <path id="Path-1" d=
                            "M101.887,35.594c12.705,-10.866 40.565,-32.091 47.579,-23.92c-5.059,-11.148 -55.555,19.448 -55.555,19.448c0,0 -10.057,-5.279 -10.057,-5.279c-20.988,-34.665 -34.5,-27.246 -35.923,-17.671c-0.297,2.146 0.705,6.105 3.478,4.631c-5.034,-0.752 -1.517,-7.84 -0.834,-8.606c12.633,-12.066 23.131,23.082 23.677,25.759c-5.431,-1.203 -15.101,-7.428 -22.025,-13.747c-6.5,-5.93 -15.099,-3.406 -15.099,-3.406c4.864,0 8.905,0 15.099,5.75c7.291,6.768 8.464,6.809 16.628,14.796c-9.42,-2.337 -21.816,-5.088 -31.727,-2.337c-9.912,2.751 -14.19,5.102 -17.805,7.663c8.336,-1.91 16.755,-11.383 40.688,-5.857c11.934,2.813 13.398,3.986 18.622,5.857c0,0 2.631,-2.302 6.472,1.085c4.303,7.863 6.757,13.72 13.286,21.21c0,-11.146 -5.213,-19.885 -3.008,-21.21c7.734,-1.577 21.277,-1.486 30.683,-1.085c17.648,0.752 31.296,4.366 39,12.559c-15.6,-16.523 -33.9,-15.027 -63.179,-15.64Z"
                            style="fill:#b9c261;"></path>
                            <path id="Path-2" d=
                            "M93.95,31.309l-0.45,4.167c0,0 -0.415,1.013 -2.275,1.013c-1.859,0 -2.898,-0.515 -4.545,-0.515c-1.648,0 -4.288,0.232 -4.821,0.232c-0.532,0 -0.788,-2.678 -0.394,-4.157c0.394,-1.48 2.617,-6.734 2.617,-6.734c0,0 2.161,-6.254 2.161,-9.367c-0.195,1.883 2.797,2.768 3.943,3.098c1.147,0.33 6.262,0.805 6.262,-1.955c-0.254,1.775 -0.08,1.393 -1.687,3.811c-1.608,2.417 -0.811,10.407 -0.811,10.407Z"
                            style="fill:url(#_Linear8);"></path>
                            <path id="Path-3" d=
                            "M86.216,15.989c0,-1.007 1.001,-4.504 5.945,-2.77c4.552,1.948 4.316,3.733 4.316,3.985c-0.131,1.94 -2.353,2.589 -5.121,2.428c-2.769,-0.161 -5.252,-1.164 -5.14,-3.643Z"
                            style="fill:#b9c261;"></path>
                        </g>
                    </g>
                </g>
                <defs>
                    <lineargradient id="_Linear1" x1="0" y1="0" x2="1" y2="0"
                    gradientunits="userSpaceOnUse" gradienttransform=
                    "matrix(5.53044e-15,90.319,-90.319,5.53044e-15,96.5186,17.4589)">
                        <stop offset="0%" style=
                        "stop-color:#f34830;stop-opacity:1"></stop>
                        <stop offset="100%" style=
                        "stop-color:#ff6f55;stop-opacity:0"></stop>
                    </lineargradient>
                    <lineargradient id="_Linear2" x1="0" y1="0" x2="1" y2="0"
                    gradientunits="userSpaceOnUse" gradienttransform=
                    "matrix(5.53044e-15,90.319,-90.319,5.53044e-15,96.5186,17.4589)">
                        <stop offset="0%" style=
                        "stop-color:#9DAF62;stop-opacity:1"></stop>
                        <stop offset="100%" style=
                        "stop-color:#9DAF62;stop-opacity:0"></stop>
                    </lineargradient>
                    <radialgradient id="_Radial2" cx="0" cy="0" r="1"
                    gradientunits="userSpaceOnUse" gradienttransform=
                    "matrix(204.227,0,0,204.227,30.3,63.8633)">
                        <stop offset="0%" style=
                        "stop-color:#fff;stop-opacity:0.12549"></stop>
                        <stop offset="100%" style=
                        "stop-color:#ff674c;stop-opacity:0.0196078"></stop>
                    </radialgradient>
                    <radialgradient id="_Radial3" cx="0" cy="0" r="1"
                    gradientunits="userSpaceOnUse" gradienttransform=
                    "matrix(101.269,0,0,101.269,82.0457,39.188)">
                        <stop offset="0%" style=
                        "stop-color:#fff;stop-opacity:0.12549"></stop>
                        <stop offset="100%" style=
                        "stop-color:#ff674c;stop-opacity:0.0196078"></stop>
                    </radialgradient>
                    <radialgradient id="_Radial4" cx="0" cy="0" r="1"
                    gradientunits="userSpaceOnUse" gradienttransform=
                    "matrix(402.626,0,0,402.626,177.888,81.9518)">
                        <stop offset="0%" style="stop-color:#000;stop-opacity:0">
                        </stop>
                        <stop offset="100%" style=
                        "stop-color:#e45c43;stop-opacity:0.25098"></stop>
                    </radialgradient>
                    <radialgradient id="_Radial5" cx="0" cy="0" r="1"
                    gradientunits="userSpaceOnUse" gradienttransform=
                    "matrix(118.407,0,0,118.407,138.739,41.2851)">
                        <stop offset="0%" style="stop-color:#000;stop-opacity:0">
                        </stop>
                        <stop offset="100%" style=
                        "stop-color:#e45c43;stop-opacity:0.25098"></stop>
                    </radialgradient>
                    <radialgradient id="_Radial6" cx="0" cy="0" r="1"
                    gradientunits="userSpaceOnUse" gradienttransform=
                    "matrix(82.0797,0,0,82.0797,80.6609,37.549)">
                        <stop offset="0%" style="stop-color:#000;stop-opacity:0">
                        </stop>
                        <stop offset="100%" style=
                        "stop-color:#e45c43;stop-opacity:0.25098"></stop>
                    </radialgradient>
                    <radialgradient id="_Radial7" cx="0" cy="0" r="1"
                    gradientunits="userSpaceOnUse" gradienttransform=
                    "matrix(77.6458,0,0,77.6458,85.0664,37.1873)">
                        <stop offset="0%" style="stop-color:#000;stop-opacity:0">
                        </stop>
                        <stop offset="100%" style=
                        "stop-color:#e45c43;stop-opacity:0.25098"></stop>
                    </radialgradient>
                    <lineargradient id="_Linear8" x1="0" y1="0" x2="1" y2="0"
                    gradientunits="userSpaceOnUse" gradienttransform=
                    "matrix(8.43364,15.9422,-15.9422,8.43364,84.7897,20.547)">
                        <stop offset="0%" style=
                        "stop-color:#b9c261;stop-opacity:1"></stop>
                        <stop offset="100%" style=
                        "stop-color:#99a14b;stop-opacity:1"></stop>
                    </lineargradient>
                </defs></svg>
